<svg width="1500" height="500" viewBox="0 0 1500 500" fill="none" xmlns="http://www.w3.org/2000/svg">
<path d="M362.389 321V178.455H418.628C429.439 178.455 438.65 180.519 446.26 184.649C453.87 188.732 459.67 194.417 463.661 201.702C467.697 208.94 469.716 217.293 469.716 226.759C469.716 236.224 467.674 244.577 463.591 251.815C459.508 259.054 453.591 264.692 445.842 268.729C438.14 272.766 428.813 274.784 417.862 274.784H382.017V250.632H412.99C418.79 250.632 423.57 249.634 427.328 247.639C431.133 245.598 433.964 242.79 435.82 239.217C437.722 235.598 438.673 231.445 438.673 226.759C438.673 222.026 437.722 217.896 435.82 214.369C433.964 210.796 431.133 208.036 427.328 206.087C423.523 204.091 418.697 203.094 412.851 203.094H392.527V321H362.389ZM535.316 323.088C524.505 323.088 515.155 320.791 507.266 316.197C499.424 311.557 493.369 305.107 489.1 296.848C484.831 288.542 482.697 278.914 482.697 267.963C482.697 256.92 484.831 247.268 489.1 239.009C493.369 230.703 499.424 224.253 507.266 219.659C515.155 215.019 524.505 212.699 535.316 212.699C546.128 212.699 555.454 215.019 563.296 219.659C571.184 224.253 577.263 230.703 581.532 239.009C585.801 247.268 587.935 256.92 587.935 267.963C587.935 278.914 585.801 288.542 581.532 296.848C577.263 305.107 571.184 311.557 563.296 316.197C555.454 320.791 546.128 323.088 535.316 323.088ZM535.455 300.119C540.374 300.119 544.48 298.727 547.775 295.943C551.069 293.113 553.552 289.261 555.222 284.389C556.939 279.517 557.798 273.972 557.798 267.754C557.798 261.536 556.939 255.991 555.222 251.119C553.552 246.247 551.069 242.396 547.775 239.565C544.48 236.735 540.374 235.32 535.455 235.32C530.49 235.32 526.314 236.735 522.927 239.565C519.586 242.396 517.057 246.247 515.34 251.119C513.67 255.991 512.835 261.536 512.835 267.754C512.835 273.972 513.67 279.517 515.34 284.389C517.057 289.261 519.586 293.113 522.927 295.943C526.314 298.727 530.49 300.119 535.455 300.119ZM636.866 178.455V321H607.215V178.455H636.866ZM678.923 361.091C675.164 361.091 671.638 360.789 668.343 360.186C665.095 359.629 662.404 358.91 660.27 358.028L666.951 335.895C670.431 336.962 673.564 337.542 676.348 337.635C679.178 337.728 681.614 337.078 683.656 335.686C685.744 334.294 687.438 331.928 688.737 328.587L690.477 324.062L652.126 214.091H683.308L705.441 292.602H706.555L728.897 214.091H760.288L718.735 332.554C716.74 338.308 714.026 343.319 710.592 347.588C707.205 351.903 702.913 355.221 697.716 357.541C692.519 359.908 686.254 361.091 678.923 361.091ZM775.461 321V214.091H803.72V232.953H804.973C807.2 226.689 810.912 221.747 816.109 218.128C821.306 214.509 827.524 212.699 834.762 212.699C842.094 212.699 848.335 214.532 853.485 218.197C858.636 221.817 862.07 226.735 863.787 232.953H864.9C867.081 226.828 871.025 221.933 876.733 218.267C882.486 214.555 889.284 212.699 897.126 212.699C907.102 212.699 915.199 215.877 921.417 222.234C927.681 228.545 930.814 237.5 930.814 249.101V321H901.233V254.947C901.233 249.008 899.655 244.554 896.5 241.584C893.344 238.614 889.4 237.129 884.667 237.129C879.285 237.129 875.085 238.846 872.069 242.28C869.053 245.667 867.545 250.145 867.545 255.713V321H838.799V254.321C838.799 249.078 837.291 244.902 834.275 241.793C831.306 238.684 827.385 237.129 822.512 237.129C819.218 237.129 816.248 237.964 813.603 239.635C811.005 241.259 808.94 243.556 807.409 246.526C805.877 249.449 805.112 252.883 805.112 256.827V321H775.461ZM1002.54 323.088C991.727 323.088 982.377 320.791 974.489 316.197C966.647 311.557 960.592 305.107 956.323 296.848C952.054 288.542 949.919 278.914 949.919 267.963C949.919 256.92 952.054 247.268 956.323 239.009C960.592 230.703 966.647 224.253 974.489 219.659C982.377 215.019 991.727 212.699 1002.54 212.699C1013.35 212.699 1022.68 215.019 1030.52 219.659C1038.41 224.253 1044.49 230.703 1048.75 239.009C1053.02 247.268 1055.16 256.92 1055.16 267.963C1055.16 278.914 1053.02 288.542 1048.75 296.848C1044.49 305.107 1038.41 311.557 1030.52 316.197C1022.68 320.791 1013.35 323.088 1002.54 323.088ZM1002.68 300.119C1007.6 300.119 1011.7 298.727 1015 295.943C1018.29 293.113 1020.77 289.261 1022.44 284.389C1024.16 279.517 1025.02 273.972 1025.02 267.754C1025.02 261.536 1024.16 255.991 1022.44 251.119C1020.77 246.247 1018.29 242.396 1015 239.565C1011.7 236.735 1007.6 235.32 1002.68 235.32C997.713 235.32 993.537 236.735 990.15 239.565C986.809 242.396 984.28 246.247 982.563 251.119C980.892 255.991 980.057 261.536 980.057 267.754C980.057 273.972 980.892 279.517 982.563 284.389C984.28 289.261 986.809 293.113 990.15 295.943C993.537 298.727 997.713 300.119 1002.68 300.119ZM1074.44 321V214.091H1103.18V232.744H1104.3C1106.25 226.109 1109.52 221.098 1114.11 217.71C1118.7 214.277 1123.99 212.56 1129.98 212.56C1131.47 212.56 1133.07 212.652 1134.78 212.838C1136.5 213.024 1138.01 213.279 1139.31 213.604V239.913C1137.92 239.496 1135.99 239.125 1133.53 238.8C1131.07 238.475 1128.82 238.312 1126.78 238.312C1122.42 238.312 1118.52 239.264 1115.09 241.166C1111.7 243.022 1109.01 245.621 1107.01 248.962C1105.06 252.303 1104.09 256.154 1104.09 260.516V321H1074.44ZM1154.64 361.091V214.091H1183.87V232.048H1185.19C1186.49 229.171 1188.37 226.248 1190.83 223.278C1193.34 220.262 1196.58 217.757 1200.57 215.761C1204.61 213.72 1209.62 212.699 1215.61 212.699C1223.4 212.699 1230.6 214.741 1237.19 218.824C1243.77 222.861 1249.04 228.963 1252.99 237.129C1256.93 245.25 1258.9 255.435 1258.9 267.685C1258.9 279.61 1256.98 289.679 1253.12 297.892C1249.32 306.059 1244.12 312.253 1237.53 316.476C1230.99 320.652 1223.66 322.74 1215.54 322.74C1209.79 322.74 1204.89 321.789 1200.85 319.886C1196.86 317.984 1193.59 315.594 1191.04 312.717C1188.49 309.794 1186.54 306.848 1185.19 303.878H1184.29V361.091H1154.64ZM1183.66 267.545C1183.66 273.902 1184.54 279.447 1186.31 284.18C1188.07 288.913 1190.62 292.602 1193.96 295.247C1197.3 297.846 1201.36 299.145 1206.14 299.145C1210.97 299.145 1215.05 297.822 1218.39 295.178C1221.73 292.486 1224.26 288.774 1225.98 284.041C1227.74 279.262 1228.62 273.763 1228.62 267.545C1228.62 261.374 1227.77 255.945 1226.05 251.259C1224.33 246.572 1221.8 242.906 1218.46 240.261C1215.12 237.616 1211.01 236.294 1206.14 236.294C1201.32 236.294 1197.23 237.57 1193.89 240.122C1190.6 242.674 1188.07 246.294 1186.31 250.98C1184.54 255.667 1183.66 261.188 1183.66 267.545ZM1308.32 259.193V321H1278.67V178.455H1307.48V232.953H1308.74C1311.15 226.643 1315.05 221.701 1320.43 218.128C1325.81 214.509 1332.56 212.699 1340.68 212.699C1348.11 212.699 1354.58 214.323 1360.1 217.571C1365.67 220.773 1369.99 225.39 1373.05 231.422C1376.16 237.408 1377.69 244.577 1377.64 252.929V321H1347.99V258.219C1348.04 251.63 1346.37 246.502 1342.98 242.837C1339.64 239.171 1334.95 237.338 1328.92 237.338C1324.88 237.338 1321.31 238.196 1318.2 239.913C1315.14 241.63 1312.73 244.136 1310.96 247.43C1309.25 250.679 1308.37 254.599 1308.32 259.193Z" fill="black"/>
<rect x="109" y="150" width="200" height="200" fill="#38D9A9"/>
<path d="M252 226.741L226.337 175.023L194.379 223.107L252 226.741ZM157 253.045C157.08 244.217 162.418 229.818 172.475 218.975C182.316 208.365 196.051 201.76 213.152 206.642L215.897 197.026C194.27 190.852 176.836 199.568 165.143 212.174C153.667 224.548 147.106 241.259 147 252.955L157 253.045Z" fill="white"/>
<path d="M165 272.259L190.789 323.914L222.629 275.753L165 272.259ZM261 245.954C260.919 254.791 255.505 269.238 245.294 280.092C235.308 290.707 221.341 297.31 203.928 292.274L201.15 301.88C223.037 308.21 240.706 299.564 252.578 286.944C264.226 274.562 270.892 257.787 271 246.046L261 245.954Z" fill="white"/>
</svg>
